<svg width="90" height="28" viewBox="0 0 90 28" fill="none" xmlns="http://www.w3.org/2000/svg">
<path d="M34.9408 6.32509V22.8121H31.0199V16.0247H24.9208V22.8121H21V6.32509H24.9208V12.7837H31.0199V6.32509H34.9408Z" fill="#183B56"/>
<path d="M38.826 8.34487C38.1381 8.34487 37.5726 8.14133 37.1293 7.73424C36.7013 7.3115 36.4872 6.79481 36.4872 6.18418C36.4872 5.55789 36.7013 5.0412 37.1293 4.63412C37.5726 4.21137 38.1381 4 38.826 4C39.4986 4 40.0489 4.21137 40.4769 4.63412C40.9202 5.0412 41.1418 5.55789 41.1418 6.18418C41.1418 6.79481 40.9202 7.3115 40.4769 7.73424C40.0489 8.14133 39.4986 8.34487 38.826 8.34487ZM40.775 9.70705V22.8121H36.8541V9.70705H40.775Z" fill="#183B56"/>
<path d="M49.8301 19.4067V22.8121H47.8353C46.4137 22.8121 45.3055 22.4598 44.5106 21.7553C43.7157 21.035 43.3183 19.8686 43.3183 18.2559V13.042H41.7591V9.70705H43.3183V6.51298H47.2391V9.70705H49.8072V13.042H47.2391V18.3028C47.2391 18.6943 47.3308 18.9761 47.5143 19.1483C47.6977 19.3206 48.0034 19.4067 48.4314 19.4067H49.8301Z" fill="#183B56"/>
<path d="M63.1575 16.0482C63.1575 16.424 63.1346 16.8154 63.0888 17.2225H54.2153C54.2764 18.0367 54.5286 18.663 54.9719 19.1014C55.4305 19.5241 55.9884 19.7355 56.6457 19.7355C57.624 19.7355 58.3043 19.3127 58.6864 18.4672H62.8595C62.6455 19.3284 62.2557 20.1034 61.6901 20.7923C61.1398 21.4813 60.4443 22.0214 59.6036 22.4129C58.7628 22.8043 57.8228 23 56.7833 23C55.5299 23 54.414 22.726 53.4357 22.178C52.4574 21.63 51.6931 20.8471 51.1428 19.8294C50.5925 18.8117 50.3173 17.6218 50.3173 16.2596C50.3173 14.8974 50.5848 13.7075 51.1199 12.6897C51.6701 11.672 52.4344 10.8892 53.4128 10.3412C54.3911 9.79316 55.5146 9.51916 56.7833 9.51916C58.0215 9.51916 59.1221 9.78533 60.0851 10.3177C61.0481 10.85 61.7971 11.6094 62.3321 12.5958C62.8824 13.5822 63.1575 14.733 63.1575 16.0482ZM59.145 14.9913C59.145 14.3024 58.9157 13.7544 58.4571 13.3473C57.9985 12.9403 57.4253 12.7367 56.7374 12.7367C56.0802 12.7367 55.5222 12.9324 55.0636 13.3239C54.6203 13.7153 54.3452 14.2711 54.2382 14.9913H59.145Z" fill="#183B56"/>
<path d="M63.5292 16.2596C63.5292 14.8974 63.7968 13.7075 64.3318 12.6897C64.8821 11.672 65.6387 10.8892 66.6017 10.3412C67.58 9.79316 68.6959 9.51916 69.9494 9.51916C71.5544 9.51916 72.8919 9.94973 73.9619 10.8109C75.0472 11.672 75.758 12.8855 76.0943 14.4512H71.9212C71.5697 13.4491 70.8894 12.9481 69.8806 12.9481C69.1621 12.9481 68.5889 13.2377 68.1609 13.8171C67.7329 14.3807 67.5189 15.1949 67.5189 16.2596C67.5189 17.3243 67.7329 18.1463 68.1609 18.7256C68.5889 19.2892 69.1621 19.5711 69.8806 19.5711C70.8894 19.5711 71.5697 19.07 71.9212 18.068H76.0943C75.758 19.6024 75.0472 20.808 73.9619 21.6848C72.8766 22.5616 71.5391 23 69.9494 23C68.6959 23 67.58 22.726 66.6017 22.178C65.6387 21.63 64.8821 20.8471 64.3318 19.8294C63.7968 18.8117 63.5292 17.6218 63.5292 16.2596Z" fill="#183B56"/>
<path d="M85.1391 9.56613C86.6065 9.56613 87.7835 10.0672 88.6701 11.0692C89.5567 12.0556 90 13.4178 90 15.1557V22.8121H86.1021V15.6959C86.1021 14.8191 85.8804 14.138 85.4371 13.6527C84.9939 13.1673 84.3977 12.9246 83.6487 12.9246C82.8997 12.9246 82.3035 13.1673 81.8602 13.6527C81.4169 14.138 81.1953 14.8191 81.1953 15.6959V22.8121H77.2744V5.43263H81.1953V11.4685C81.5927 10.8892 82.1354 10.4273 82.8232 10.0828C83.5111 9.73836 84.2831 9.56613 85.1391 9.56613Z" fill="#183B56"/>
<path d="M6.29308e-07 13.7113L0 0H4.8L4.8 7.04828C5.63777 6.74029 6.54818 6.57143 7.5 6.57143C11.6421 6.57143 15 9.7694 15 13.7143V22H10.2V13.7143C10.2 12.2941 8.99117 11.1429 7.5 11.1429C6.00949 11.1429 4.80107 12.2931 4.8 13.7124C4.8 13.713 4.8 13.7137 4.8 13.7143L4.8 22H1.00973e-06L0 13.7143C0 13.7133 2.09783e-07 13.7123 6.29308e-07 13.7113Z" fill="#1565D8"/>
<path d="M10.2 4.57143V0H15V4.57143L10.2 4.57143Z" fill="#1565D8"/>
</svg>
