<svg width="175" height="119" viewBox="0 0 175 119" fill="none" xmlns="http://www.w3.org/2000/svg">
<path d="M27.125 45.5L1.69606e-05 66.5L1.64391e-05 79.625L27.125 58.625L27.125 45.5Z" fill="#0B4CAB"/>
<path d="M0 66.5L27.125 87.5L27.125 100.625L3.82473e-07 79.625L0 66.5Z" fill="#1565D8"/>
<path d="M28 26.25L55.125 47.25L55.125 60.375L28 39.375L28 26.25Z" fill="#0B4CAB"/>
<path d="M55.125 47.25L28 68.25L28 81.375L55.125 60.375L55.125 47.25Z" fill="#1565D8"/>
<path d="M72.8438 47.9H81.9438L89.4688 62.5125L96.8188 47.9H105.919V78H96.8188V61.9437L91.2625 72.4437H87.5438L81.9438 61.9437V78H72.8438V47.9ZM121.306 78.7C117.194 78.7 113.723 77.9417 110.894 76.425L113.081 69.6437C116.086 70.7229 118.769 71.2625 121.131 71.2625C122.415 71.2625 123.348 71.1167 123.931 70.825C124.544 70.5042 124.85 70.0375 124.85 69.425C124.85 69.0167 124.69 68.6667 124.369 68.375C124.048 68.0542 123.406 67.7042 122.444 67.325C121.481 66.9458 120.038 66.4792 118.113 65.925C115.75 65.225 113.913 64.0875 112.6 62.5125C111.288 60.9083 110.631 59.0708 110.631 57C110.631 53.7917 111.681 51.3708 113.781 49.7375C115.911 48.075 118.769 47.2437 122.356 47.2437C124.223 47.2437 126.061 47.4479 127.869 47.8562C129.677 48.2354 131.281 48.8042 132.681 49.5625L130.319 56.1687C128.686 55.6146 127.256 55.2208 126.031 54.9875C124.836 54.725 123.669 54.5937 122.531 54.5937C120.606 54.5937 119.644 55.1187 119.644 56.1687C119.644 56.6937 119.95 57.1458 120.563 57.525C121.204 57.875 122.502 58.3271 124.456 58.8812C127.519 59.6979 129.838 60.9521 131.413 62.6437C132.988 64.3062 133.775 66.3042 133.775 68.6375C133.775 71.875 132.725 74.3687 130.625 76.1187C128.525 77.8396 125.419 78.7 121.306 78.7ZM138.229 47.9H147.329L154.854 62.5125L162.204 47.9H171.304V78H162.204V61.9437L156.648 72.4437H152.929L147.329 61.9437V78H138.229V47.9Z" fill="#183B56"/>
</svg>
